<?xml version="1.0" encoding="utf-8"?>
<!-- Uploaded to: SVG Repo, www.svgrepo.com, Generator: SVG Repo Mixer Tools -->
<svg fill="#000000" width="800px" height="800px" viewBox="0 0 32 32" version="1.1" xmlns="http://www.w3.org/2000/svg">
<title>player-shot</title>
<path d="M29.218 19.058c1.708-1.708 2.148-4.040 0.981-5.205s-3.497-0.727-5.205 0.981c-0.332 0.332-0.615 0.687-0.849 1.053-0.812-0.489-1.795-0.751-2.861-0.821l-1.088-8.773 1.197-1.279-0.346-2.188-1.131 1.208-0.038-0.305-0.446 0.055 0.036 0.287-1.401-0.774 0.346 2.188 1.321 0.73 1.096 8.833c-0.608-0.009-1.237 0.041-1.874 0.143l-5.342-9.253 0.61-1.502-1.108-1.918-0.61 1.502-0.186-0.322-0.389 0.225 0.19 0.329-1.618-0.225 1.108 1.918 1.618 0.225 5.257 9.106c-0.607 0.121-1.216 0.289-1.815 0.497l-6.976-5.931 0.129-1.594-1.632-1.498-0.138 1.697-0.397-0.338-0.291 0.342 0.312 0.265-1.526 0.257 1.632 1.498 1.634-0.275 6.769 5.755c-5.246 2.038-9.378 7.174-3.229 11.796h-7.457l-1.653 2.984h16.073l-5.53-6.453c1.517-1.669 4.216-2.731 6.062-2.817 0.862 2.819 2.265 7.093 4.483 9.27h3.804c-2.693-2.91-4.786-6.82-5.123-11.244 0.101 0.203 0.231 0.389 0.394 0.552 1.167 1.167 3.497 0.727 5.205-0.981z"></path>
</svg>